<?xml version="1.0" encoding="UTF-8"?> <svg xmlns="http://www.w3.org/2000/svg" width="45" height="45" viewBox="0 0 45 45" fill="none"> <g clip-path="url(#clip0_904_11781)"> <path d="M20.4002 0.0902328C8.62284 1.23281 -0.350795 11.3666 0.0271347 23.1176C0.141393 26.5365 0.879674 29.4984 2.3826 32.5131C4.57108 36.9252 8.06913 40.4232 12.49 42.6205C19.6531 46.1889 28.1258 45.6967 34.8055 41.3285C37.4158 39.6234 39.8943 37.0922 41.5818 34.4027C42.2322 33.3832 43.199 31.3969 43.6385 30.2016C44.0867 28.9887 44.6053 26.8969 44.7899 25.5346C44.992 24.1547 45.0184 20.9555 44.8426 19.7338C44.324 16.0863 43.1639 12.975 41.2391 10.0746C40.4305 8.84414 39.6131 7.84219 38.4705 6.69082C34.9637 3.14883 30.6043 0.951565 25.6209 0.213284C24.5486 0.0550804 21.5252 -0.0152359 20.4002 0.0902328ZM24.8738 11.5072C28.7146 12.3949 31.7381 15.0668 33.0301 18.723C33.4959 20.059 33.6189 20.8061 33.6102 22.4145C33.6102 23.6537 33.575 24.0053 33.3816 24.8402C32.3533 29.2436 28.9871 32.4955 24.5398 33.3744C24.0213 33.4711 23.3445 33.5238 22.4568 33.5238C20.8836 33.5238 19.8025 33.3217 18.3963 32.768L17.4998 32.4076L14.6609 33.0844C13.0965 33.4535 11.7693 33.7523 11.7166 33.7523C11.6551 33.7523 11.5496 33.6645 11.4793 33.5502C11.365 33.3744 11.409 33.0844 11.9539 30.4389L12.5603 27.5209L12.2088 26.6684C11.6199 25.2621 11.3914 24.1195 11.3914 22.4584C11.3826 20.4457 11.6902 19.1361 12.5779 17.352C14.0633 14.3725 16.9988 12.1313 20.2596 11.4897C21.3582 11.2699 21.4109 11.2611 22.8084 11.2963C23.7049 11.3227 24.3641 11.3842 24.8738 11.5072Z" fill="#313131"></path> <path d="M20.9447 13.835C18.0971 14.3799 15.5746 16.3838 14.5023 18.959C13.9662 20.251 13.8519 20.8223 13.8519 22.4131C13.8432 24.1357 13.9838 24.8037 14.6781 26.2539L15.1 27.1416L14.7572 28.7939C14.5639 29.708 14.4232 30.4902 14.432 30.543C14.4496 30.6045 15.0473 30.5078 16.1459 30.2441L17.8334 29.8574L18.6947 30.2617C20.1098 30.9209 20.7953 31.0703 22.5004 31.0703C23.7396 31.0703 24.056 31.0352 24.6976 30.8682C27.2553 30.1738 29.2943 28.46 30.4281 26.0518C31.017 24.7773 31.1488 24.1621 31.1488 22.457C31.1576 21.1562 31.1312 20.8662 30.9555 20.2158C30.1029 17.1133 27.765 14.8018 24.6273 13.958C23.7572 13.7295 21.85 13.668 20.9447 13.835ZM19.2396 17.1924C19.4418 17.3418 19.8109 18.0625 20.3119 19.3105C20.6019 20.0312 20.5844 20.1279 20.0922 20.7871C19.6527 21.3584 19.6615 21.6836 20.1361 22.2988C21.0062 23.415 23.265 25.2256 23.7924 25.2256C24.0912 25.2256 24.3197 25.085 24.8471 24.6016C25.0932 24.3643 25.3744 24.1709 25.4623 24.1709C25.5502 24.1709 26.1742 24.3291 26.851 24.5225C27.8002 24.7949 28.1254 24.918 28.2836 25.0937C28.5912 25.4541 28.5385 25.8232 28.099 26.4297C27.2992 27.5107 26.7191 27.8184 25.4447 27.8184C24.3988 27.8184 23.6254 27.6074 22.5267 27.0273C21.4984 26.4824 20.7426 25.9199 19.6967 24.918C17.807 23.1074 16.8754 21.4023 16.8754 19.7764C16.8754 18.8799 17.4115 17.9131 18.2289 17.3066C18.6244 17.0166 18.9408 16.9814 19.2396 17.1924Z" fill="#313131"></path> </g> <defs> <clipPath id="clip0_904_11781"> <rect width="11.25" height="11.25" fill="white" transform="scale(4)"></rect> </clipPath> </defs> </svg> 