<?xml version="1.0" encoding="UTF-8"?> <svg xmlns="http://www.w3.org/2000/svg" width="50" height="50" viewBox="0 0 50 50" fill="none"> <g clip-path="url(#clip0_997_12148)"> <path d="M22.667 0.099617C14.1904 0.91993 6.61232 6.05664 2.77443 13.5957C1.417 16.2617 0.616222 18.8301 0.176769 21.9258C-0.0185433 23.293 0.0107536 26.8477 0.235363 28.3711C0.616222 31.0859 1.417 33.6543 2.64747 36.125C5.07911 41.0273 8.96583 44.9141 13.8779 47.3555C21.8369 51.3203 31.251 50.7734 38.6729 45.9199C41.5733 44.0254 44.3272 41.2129 46.2022 38.2246C46.9248 37.0918 47.999 34.8848 48.4873 33.5566C48.9854 32.209 49.5615 29.8848 49.7666 28.3711C49.9912 26.8379 50.0205 23.2832 49.8252 21.9258C49.249 17.8731 47.96 14.416 45.8213 11.1934C44.9229 9.82618 44.0147 8.7129 42.7451 7.4336C38.8486 3.49805 34.0049 1.05665 28.4678 0.236336C27.2764 0.0605545 23.917 -0.0175705 22.667 0.099617ZM26.8955 17.1406C27.1104 17.2481 27.374 17.4629 27.4815 17.6094C27.6768 17.8731 27.6865 18.0098 27.6865 21.125C27.6963 24.5527 27.7549 25.0606 28.1358 25.334C28.3994 25.5195 28.5752 25.4512 29.083 24.9629C30.2354 23.8691 31.7393 21.5059 32.6377 19.3672C32.9111 18.7031 33.2432 18.0488 33.3799 17.9219C33.7022 17.5996 34.1807 17.5606 37.2568 17.5996C39.5518 17.6289 39.9326 17.6484 40.2061 17.8047C40.6455 18.0391 40.7041 18.3516 40.4502 19.1328C40.1475 20.0703 39.5811 20.9688 37.7061 23.5176C35.5479 26.4473 35.3623 26.8086 35.6553 27.375C35.7139 27.4922 36.5049 28.332 37.4033 29.25C38.9658 30.8418 40.0303 32.1309 40.4404 32.9219C40.8018 33.6348 40.6065 34.2793 39.9326 34.6309C39.542 34.8262 37.8623 34.8945 35.7334 34.7969C33.3701 34.6797 33.2432 34.6211 31.2901 32.5703C29.7568 30.9492 29.3955 30.666 28.9268 30.666C28.3311 30.666 28.1553 31.0371 27.833 32.9121C27.6572 33.9473 27.6084 34.0547 27.3057 34.3379C27.0225 34.6113 26.8955 34.6504 26.1826 34.7188C23.6045 34.9434 20.8115 34.1816 18.7022 32.668C16.544 31.125 14.2393 28.1465 11.9639 23.9375C10.9483 22.0625 9.37599 18.6738 9.37599 18.3516C9.37599 18.2148 9.46388 17.9805 9.58107 17.834L9.77638 17.5801H12.2178C13.6631 17.5801 14.835 17.6191 15.0791 17.6875C15.6943 17.8438 16.0361 18.2539 16.5537 19.4844C17.6865 22.1504 19.7764 25.2559 20.5674 25.4512C21.085 25.5781 21.2998 25.207 21.5049 23.8398C21.6221 23.0098 21.544 19.9824 21.3877 19.4258C21.2608 18.9766 20.8408 18.5859 20.2549 18.3809C19.9619 18.2734 19.7666 18.1367 19.7471 18.0391C19.669 17.6582 20.2256 17.1699 20.9483 16.9844C21.1143 16.9453 22.4326 16.916 23.8779 16.9258C26.2998 16.9453 26.544 16.9648 26.8955 17.1406Z" fill="white"></path> </g> <defs> <clipPath id="clip0_997_12148"> <rect width="12.5" height="12.5" fill="white" transform="scale(4)"></rect> </clipPath> </defs> </svg> 