<?xml version="1.0" encoding="UTF-8"?> <svg xmlns="http://www.w3.org/2000/svg" width="45" height="45" viewBox="0 0 45 45" fill="none"> <g clip-path="url(#clip0_904_11775)"> <path d="M20.3972 0.090229C12.7683 0.82851 5.94796 5.45156 2.49386 12.2367C1.27218 14.6361 0.551475 16.9477 0.155967 19.7338C-0.0198139 20.9643 0.00655327 24.1635 0.208702 25.5346C0.551475 27.9779 1.27218 30.2895 2.3796 32.5131C4.56808 36.9252 8.06612 40.4232 12.487 42.6205C19.6501 46.1889 28.1228 45.6967 34.8025 41.3285C37.4128 39.6234 39.8913 37.0922 41.5788 34.4027C42.2292 33.3832 43.196 31.3969 43.6355 30.2016C44.0837 28.9887 44.6023 26.8969 44.7868 25.5346C44.989 24.1547 45.0153 20.9555 44.8396 19.7338C44.321 16.0863 43.1609 12.975 41.236 10.0746C40.4275 8.84414 39.6101 7.84219 38.4675 6.69082C34.9607 3.14882 30.6013 0.951557 25.6179 0.213276C24.5456 0.0550728 21.5222 -0.0152397 20.3972 0.090229ZM24.2028 15.4271C24.3962 15.5238 24.6335 15.7172 24.7302 15.849C24.906 16.0863 24.9148 16.2094 24.9148 19.0131C24.9235 22.098 24.9763 22.5551 25.3191 22.8012C25.5564 22.9682 25.7146 22.9066 26.1716 22.4672C27.2087 21.4828 28.5622 19.3559 29.3708 17.4311C29.6169 16.8334 29.9157 16.2445 30.0388 16.1303C30.3288 15.8402 30.7595 15.8051 33.528 15.8402C35.5935 15.8666 35.9362 15.8842 36.1823 16.0248C36.5778 16.2357 36.6306 16.517 36.4021 17.2201C36.1296 18.0639 35.6198 18.8725 33.9323 21.1664C31.99 23.8031 31.823 24.1283 32.0866 24.6381C32.1394 24.7436 32.8513 25.4994 33.6599 26.3256C35.0661 27.7582 36.0241 28.9184 36.3933 29.6303C36.7185 30.2719 36.5427 30.852 35.9362 31.1684C35.5847 31.3441 34.073 31.4057 32.1569 31.3178C30.03 31.2123 29.9157 31.1596 28.1579 29.3139C26.778 27.8549 26.4528 27.6 26.031 27.6C25.4948 27.6 25.3366 27.934 25.0466 29.6215C24.8884 30.5531 24.8444 30.6498 24.572 30.9047C24.3171 31.1508 24.2028 31.1859 23.5612 31.2475C21.2409 31.4496 18.7273 30.7641 16.8288 29.4018C14.8864 28.0131 12.8122 25.3324 10.7644 21.5443C9.8503 19.8568 8.43526 16.807 8.43526 16.517C8.43526 16.3939 8.51437 16.183 8.61983 16.0512L8.79562 15.8227H10.9929C12.2937 15.8227 13.3484 15.8578 13.5681 15.9193C14.1218 16.06 14.4294 16.4291 14.8952 17.5365C15.9148 19.9359 17.7956 22.7309 18.5075 22.9066C18.9734 23.0209 19.1667 22.6869 19.3513 21.4564C19.4568 20.7094 19.3864 17.9848 19.2458 17.4838C19.1316 17.0795 18.7536 16.7279 18.2263 16.5434C17.9626 16.4467 17.7868 16.3236 17.7693 16.2357C17.6989 15.893 18.1999 15.4535 18.8503 15.2865C18.9997 15.2514 20.1862 15.225 21.487 15.2338C23.6667 15.2514 23.8864 15.2689 24.2028 15.4271Z" fill="#313131"></path> </g> <defs> <clipPath id="clip0_904_11775"> <rect width="11.25" height="11.25" fill="white" transform="scale(4)"></rect> </clipPath> </defs> </svg> 