<?xml version="1.0" encoding="UTF-8"?> <svg xmlns="http://www.w3.org/2000/svg" width="45" height="45" viewBox="0 0 45 45" fill="none"> <g clip-path="url(#clip0_904_11778)"> <path d="M20.3489 0.0963364C14.7151 0.676414 9.70536 3.19888 5.85575 7.38247C0.424109 13.2799 -1.39523 21.8317 1.14481 29.5309C2.29618 33.0202 4.11552 35.9381 6.7786 38.5573C10.3118 42.029 14.6009 44.112 19.7337 44.8415C20.7796 44.9909 24.2337 44.9821 25.3147 44.8327C30.4651 44.1208 34.9036 41.9235 38.472 38.3112C42.0228 34.7165 44.1058 30.4538 44.844 25.2682C44.9935 24.2311 44.9935 20.7682 44.844 19.7311C44.4222 16.7692 43.5608 14.0973 42.2513 11.7331C41.2229 9.86099 40.0276 8.26138 38.472 6.68813C34.9739 3.14614 30.6233 0.948875 25.6224 0.210594C24.5413 0.0523911 21.4212 -0.0179214 20.3489 0.0963364ZM33.0052 13.6579C33.3919 13.8249 33.5765 14.194 33.5765 14.8092C33.5765 15.3717 29.8587 33.0202 29.6653 33.4069C29.3841 33.9518 28.7776 34.154 28.1624 33.9254C27.9515 33.8463 25.9212 32.3786 22.9505 30.1725L22.2122 29.6276L20.6214 31.1481C19.4524 32.2555 18.9427 32.695 18.7317 32.7389C18.5735 32.7741 18.4241 32.7829 18.4065 32.7565C18.3802 32.7301 18.4417 31.4557 18.5472 29.9088L18.7317 27.1139L19.3558 26.5426C19.6897 26.2262 22.0716 24.0729 24.638 21.7526C27.2132 19.4235 29.3138 17.4723 29.3138 17.402C29.3138 17.3053 29.2171 17.2702 29.0061 17.279C28.7513 17.2877 27.4505 18.07 22.177 21.3834C18.5999 23.6422 15.6204 25.4879 15.5677 25.4879C15.3304 25.4879 9.78446 23.7038 9.52079 23.5456C8.95829 23.194 9.08134 22.6754 9.81083 22.2624C10.0042 22.1569 11.4017 21.5856 12.9222 21.0055C14.4427 20.4167 17.3167 19.3092 19.2942 18.5446C21.2806 17.7799 24.8138 16.4176 27.1604 15.5124C32.302 13.526 32.2493 13.5436 32.5042 13.5348C32.6097 13.5348 32.8382 13.5875 33.0052 13.6579Z" fill="#313131"></path> </g> <defs> <clipPath id="clip0_904_11778"> <rect width="11.25" height="11.25" fill="white" transform="scale(4)"></rect> </clipPath> </defs> </svg> 