<?xml version="1.0" encoding="UTF-8"?> <svg xmlns="http://www.w3.org/2000/svg" width="512" height="185" viewBox="0 0 512 185" fill="none"> <path d="M123.501 136.501C128.201 136.501 132.801 137.801 136.401 140.601C136.801 140.901 137.001 141.401 137.201 141.901L137.701 141.801C137.601 141.301 137.501 140.601 137.501 139.901L137.401 135.301H138.001L138.601 153.801H137.301L137.101 147.901C136.701 142.201 129.901 137.701 123.001 137.701C111.501 137.701 105.301 145.101 105.301 158.901C105.301 174.201 111.801 182.401 123.801 182.401C130.501 182.401 137.001 179.101 139.401 173.701L140.601 174.101C137.901 180.501 131.001 183.601 123.701 183.601C108.901 183.601 99.1006 174.101 99.1006 160.001C98.9006 145.801 108.801 136.501 123.501 136.501Z" fill="white"></path> <path d="M144.1 182.4H145.2C147 182.4 148 180.6 149.1 178.4L168.8 137H174.2V137.8C174.2 139.1 174.5 140.7 174.8 141.5L191.4 178.4C192.8 181.5 193 182.4 195.5 182.4H196.1V183H182.7V182.4H188.1V182.3C187.1 182 186.4 180.4 185.9 179.3L182 170.5H154.2L150.4 178.4C150.2 178.9 150 179.4 150 179.9C150 181.4 151.3 182.4 153.4 182.4H156.8V183H144V182.4H144.1ZM181.6 169.3L169.7 142.7C169.2 141.7 169.1 140.8 169.1 140.1H168.5C168.5 140.5 168.3 141.3 167.7 142.7L154.9 169.3H181.6Z" fill="white"></path> <path d="M214.299 182.4H216.799C220.199 182.4 220.499 182.1 220.499 179.1V176.9C206.399 176.1 197.199 169.6 197.199 160C197.199 150.5 206.399 144 220.499 143.2V141C220.499 137.9 220.099 137.7 216.799 137.7H214.299V137H232.199V137.7H229.699C226.299 137.7 225.899 138 225.899 141V143.1C239.999 143.8 249.199 150.4 249.199 159.9C249.199 169.5 239.999 176 225.899 176.8V179C225.899 182.1 226.299 182.3 229.699 182.3H232.199V182.9H214.299V182.4ZM220.499 144.3C210.099 145.1 203.399 150.7 203.399 158.8C203.399 168.1 210.099 174.5 220.499 175.6V144.3ZM225.999 175.6C236.399 174.8 243.099 169.2 243.099 161.1C243.099 151.8 236.399 145.3 225.999 144.3V175.6Z" fill="white"></path> <path d="M253.7 182.4H254.8C258.4 182.4 258.9 181.4 259.2 177.9L261 141C261 140.5 261.1 140 261.1 139.7C261.1 138.3 260.6 137.7 257.6 137.7H254.8V137H265.1L283.3 173.6C283.9 174.9 284.4 176 284.4 176.3H284.8C284.8 175.9 285.3 174.5 285.8 173.6L304 137H314.5V137.6H312C308.6 137.6 308.1 138.5 308.1 140.4C308.1 140.9 308.1 141.5 308.2 142.1L309.8 177.8C309.9 181.4 310.4 182.3 314.3 182.3H315.8V182.9H297.5V182.3H300C303.9 182.3 304.3 181.4 304.3 179.8C304.3 179.5 304.3 179.1 304.3 178.7L302.9 145C302.8 143.8 302.8 142.9 302.8 142.2H302.4C302.4 142.4 301.9 143.5 301.3 144.8L282.4 183.1L282.2 183.5H282L281.8 183.1L263.2 145.5C262.6 144.2 262.4 143 262.4 142.8H262.1C262.1 143.4 262.1 143.8 262 145L260.2 178.5C260.2 179 260.1 179.5 260.1 179.9C260.1 181.4 260.7 182.2 264.5 182.2H267V182.8H253.5V182.4H253.7Z" fill="white"></path> <path d="M320.202 182.4H321.302C323.102 182.4 324.102 180.6 325.202 178.4L344.902 137H350.302V137.8C350.302 139.1 350.602 140.7 350.902 141.5L367.502 178.4C368.902 181.5 369.102 182.4 371.602 182.4H372.202V183H358.802V182.4H364.202V182.3C363.202 182 362.502 180.4 362.002 179.3L358.102 170.5H330.302L326.502 178.4C326.302 178.9 326.102 179.4 326.102 179.9C326.102 181.4 327.402 182.4 329.502 182.4H332.902V183H320.102V182.4H320.202ZM357.602 169.3L345.702 142.7C345.202 141.7 345.102 140.8 345.102 140.1H344.502C344.502 140.5 344.302 141.3 343.702 142.7L330.902 169.3H357.602Z" fill="white"></path> <path d="M377.398 182.4H379.898C383.298 182.4 383.598 182.1 383.598 179V141C383.598 137.9 383.198 137.6 379.898 137.6H377.398V137H395.098C405.698 137 412.698 142.6 412.698 151.1C412.698 159.5 405.598 165.1 395.098 165.1H389.098V179C389.098 182.1 389.498 182.4 392.898 182.4H394.698V183H377.498V182.4H377.398ZM387.798 138.6C388.598 139.6 388.998 141.1 388.998 142.6V164H392.898C401.798 164 406.498 159.5 406.498 151.2C406.498 142.9 401.698 138.4 392.898 138.4H387.798V138.6Z" fill="white"></path> <path d="M71.8984 160.3L72.1984 158.6H89.6984L89.2984 160.3H71.8984Z" fill="white"></path> <path d="M421.898 160.3L422.198 158.6H439.698L439.298 160.3H421.898Z" fill="white"></path> <path d="M22.3 70.9992C18.9 80.0992 17.2 86.6992 17.4 90.8992C17.5 92.9992 17.8 93.9992 18.3 95.2992H0C4.1 90.1992 8.3 83.5992 12.3 75.6992C16.3 67.7992 20.6 58.2992 24.9 46.7992C28.6 37.3992 31.5 28.8992 33.9 21.4992C36.2 14.0992 37.3 9.59922 37.2 8.09922C37.2 6.39922 36.6 4.99922 35.9 3.69922H54C60.7 26.7992 67.3 46.2992 73.3 62.0992C79.3 77.9992 84.3 88.9992 88.7 95.1992H72C72 95.1992 64 73.1992 56.3 50.0992C53.3 41.1992 43.9 13.3992 43.9 13.3992L30 50.2992L22.4 70.5992L22.3 70.9992Z" fill="white"></path> <path d="M105.6 53.3992V47.4992C105.6 21.5992 105.6 7.49922 102 3.59922H110.9C127.6 3.59922 139.6 3.19922 147 3.19922C147.6 3.19922 149.9 3.19922 152 3.29922L153.1 16.6992C150.4 9.39922 142.1 8.79922 127.1 8.79922H119.1C118.1 13.1992 117.8 23.1992 117.8 38.7992V43.4992C121.1 43.8992 124.8 43.7992 128.9 43.7992C138 43.7992 146 43.4992 153.3 42.1992C146.4 49.7992 136.3 50.4992 121.4 50.4992C120.4 50.4992 119.3 50.3992 117.7 50.3992V59.6992C117.7 75.2992 118 85.3992 119 89.7992H127.3C143.4 89.7992 153.4 87.8992 159.6 79.8992L157.2 94.1992C153.3 94.8992 148.6 95.2992 142.9 95.2992C135.3 95.2992 125.6 94.9992 113.6 94.9992H102C105.4 91.6992 105.6 78.1992 105.6 53.3992Z" fill="white"></path> <path d="M240.199 23.3C236.099 13.3 228.799 8.3 218.199 8.3C197.599 8.3 185.299 22.4 185.299 46.3C185.299 71.4 199.599 86.4 220.599 86.4C230.899 86.4 239.899 82.4 246.199 75.1C242.799 88.1 230.599 97 213.899 97C189.299 97 171.199 78.3 171.199 50.4C171.199 20.6 188.999 2 219.799 2C227.099 2 233.799 3.7 241.099 3.7L240.199 23.3Z" fill="white"></path> <path d="M317.799 38.9996C317.799 18.9996 317.699 7.69961 314.099 3.69961H333.699C330.199 7.09961 329.999 19.9996 329.999 43.8996V54.9996C329.999 78.8996 330.099 91.8996 333.599 95.2996H313.999C317.399 91.2996 317.699 79.8996 317.699 59.8996V48.9996H274.999V59.8996C274.999 79.8996 274.999 91.2996 278.599 95.2996H259.199C262.599 91.6996 262.799 78.1996 262.799 53.3996V47.4996C262.799 21.5996 262.799 7.49961 259.199 3.59961H278.599C274.999 7.69961 274.999 18.9996 274.999 38.9996V43.6996H317.699V38.9996H317.799Z" fill="white"></path> <path d="M367.002 46.9008C377.102 23.5008 381.002 10.3008 381.002 8.20078C381.002 6.80078 380.602 5.30078 379.902 3.80078H397.602C412.502 53.7008 424.902 83.8008 433.002 95.4008H417.402L403.002 55.7008H369.702L363.602 70.7008C360.302 78.3008 357.702 84.7008 357.702 91.0008C357.702 92.3008 358.002 93.9008 358.402 95.4008H340.102C349.502 84.0008 357.902 68.2008 367.002 46.9008ZM400.902 50.3008L387.502 13.4008L372.002 50.3008H400.902Z" fill="white"></path> <path d="M508.601 85.9992C509.201 90.8992 510.001 93.9992 511.301 95.2992H491.901C493.301 93.8992 494.201 90.6992 494.801 85.6992C495.201 80.5992 495.501 69.7992 495.501 53.3992V50.6992C488.901 51.5992 487.801 53.0992 483.101 59.7992L481.101 62.6992C465.501 84.9992 465.501 84.9992 462.601 88.9992C459.901 92.9992 457.601 95.2992 452.701 95.2992H440.301C444.601 92.6992 448.601 87.8992 452.701 82.2992C452.701 82.2992 472.601 55.6992 473.601 54.3992C474.901 52.7992 476.601 51.0992 476.601 51.0992H475.201C462.801 50.0992 451.901 41.1992 451.101 28.0992C450.401 16.0992 459.401 2.79922 478.701 2.69922H478.801H478.901C489.801 2.69922 499.801 3.69922 510.901 3.69922H511.301H511.601L511.301 3.79922C510.001 5.09922 509.201 8.19922 508.601 12.8992C508.001 17.7992 507.701 27.9992 507.701 43.7992V49.3992V54.9992C507.801 70.6992 508.101 81.1992 508.601 85.9992ZM495.501 45.8992C495.501 28.9992 495.201 17.9992 494.801 13.2992C494.501 11.3992 494.401 9.89922 494.101 8.39922L483.101 8.29922C475.001 8.29922 470.701 10.2992 467.701 14.9992C465.801 18.0992 464.701 22.5992 465.001 27.9992C465.601 36.9992 470.901 42.8992 476.701 44.9992C480.601 46.2992 484.101 46.3992 488.301 46.2992C490.101 46.2992 493.501 45.9992 495.501 45.8992Z" fill="white"></path> </svg> 