<?xml version="1.0" encoding="UTF-8"?> <svg xmlns="http://www.w3.org/2000/svg" width="50" height="50" viewBox="0 0 50 50" fill="none"> <g clip-path="url(#clip0_997_12151)"> <path d="M22.6082 0.10878C16.3484 0.753311 10.782 3.55605 6.50465 8.20448C0.469496 14.7572 -1.55199 24.2592 1.27028 32.8139C2.54957 36.6908 4.57106 39.933 7.53004 42.8432C11.4558 46.7006 16.2214 49.015 21.9246 49.8256C23.0867 49.9916 26.9246 49.9818 28.1257 49.8158C33.8484 49.0248 38.78 46.5834 42.7449 42.5697C46.6902 38.5756 49.0047 33.8393 49.825 28.0775C49.991 26.9252 49.991 23.0775 49.825 21.9252C49.3562 18.6342 48.3992 15.6654 46.9441 13.0385C45.8015 10.9584 44.4734 9.18105 42.7449 7.433C38.8582 3.49745 34.0242 1.05605 28.4675 0.235733C27.2664 0.0599518 23.7996 -0.0181732 22.6082 0.10878ZM36.6707 15.1771C37.1004 15.3627 37.3054 15.7728 37.3054 16.4564C37.3054 17.0814 33.1746 36.6908 32.9597 37.1205C32.6472 37.726 31.9734 37.9506 31.2898 37.6967C31.0554 37.6088 28.7996 35.9779 25.4988 33.5268L24.6785 32.9213L22.9109 34.6107C21.6121 35.8412 21.0457 36.3295 20.8113 36.3783C20.6355 36.4174 20.4695 36.4271 20.45 36.3978C20.4207 36.3685 20.489 34.9525 20.6062 33.2338L20.8113 30.1283L21.5047 29.4935C21.8757 29.142 24.5222 26.7494 27.3738 24.1713C30.2351 21.5834 32.5691 19.4154 32.5691 19.3373C32.5691 19.2299 32.4617 19.1908 32.2273 19.2006C31.9441 19.2103 30.4988 20.0795 24.6394 23.7611C20.6648 26.2709 17.3543 28.3217 17.2957 28.3217C17.032 28.3217 10.8699 26.3393 10.5769 26.1635C9.95192 25.7728 10.0886 25.1967 10.8992 24.7377C11.114 24.6205 12.6668 23.9857 14.3562 23.3412C16.0457 22.6869 19.239 21.4564 21.4363 20.6068C23.6433 19.7572 27.5691 18.2435 30.1765 17.2377C35.8894 15.0307 35.8308 15.0502 36.114 15.0404C36.2312 15.0404 36.4851 15.099 36.6707 15.1771Z" fill="white"></path> </g> <defs> <clipPath id="clip0_997_12151"> <rect width="12.5" height="12.5" fill="white" transform="scale(4)"></rect> </clipPath> </defs> </svg> 