<?xml version="1.0" encoding="UTF-8"?> <svg xmlns="http://www.w3.org/2000/svg" width="50" height="50" viewBox="0 0 50 50" fill="none"> <g clip-path="url(#clip0_997_12154)"> <path d="M22.6651 0.0996208C9.5792 1.36915 -0.391508 12.6289 0.0284136 25.6856C0.155367 29.4844 0.97568 32.7754 2.6456 36.125C5.07724 41.0273 8.96396 44.9141 13.8761 47.3555C21.8351 51.3203 31.2491 50.7734 38.671 45.9199C41.5714 44.0254 44.3253 41.2129 46.2003 38.2246C46.923 37.0918 47.9972 34.8848 48.4855 33.5566C48.9835 32.209 49.5597 29.8848 49.7648 28.3711C49.9894 26.8379 50.0187 23.2832 49.8234 21.9258C49.2472 17.8731 47.9581 14.416 45.8195 11.1934C44.921 9.82618 44.0128 8.7129 42.7433 7.43361C38.8468 3.49806 34.003 1.05665 28.4659 0.23634C27.2745 0.0605583 23.9151 -0.0175667 22.6651 0.0996208ZM27.6358 12.7852C31.9034 13.7715 35.2628 16.7402 36.6984 20.8027C37.2159 22.2871 37.3526 23.1172 37.3429 24.9043C37.3429 26.2813 37.3038 26.6719 37.089 27.5996C35.9464 32.4922 32.2062 36.1055 27.2648 37.082C26.6886 37.1895 25.9366 37.2481 24.9503 37.2481C23.2023 37.2481 22.0011 37.0234 20.4386 36.4082L19.4425 36.0078L16.2882 36.7598C14.5499 37.1699 13.0753 37.502 13.0167 37.502C12.9483 37.502 12.8312 37.4043 12.753 37.2773C12.6261 37.082 12.6749 36.7598 13.2804 33.8203L13.9542 30.5781L13.5636 29.6309C12.9093 28.0684 12.6554 26.7988 12.6554 24.9531C12.6456 22.7168 12.9874 21.2617 13.9737 19.2793C15.6241 15.9688 18.8858 13.4785 22.5089 12.7656C23.7296 12.5215 23.7882 12.5117 25.3409 12.5508C26.337 12.5801 27.0694 12.6484 27.6358 12.7852Z" fill="white"></path> <path d="M23.2641 15.3711C20.1 15.9766 17.2973 18.2031 16.1059 21.0645C15.5102 22.5 15.3832 23.1348 15.3832 24.9023C15.3735 26.8164 15.5297 27.5586 16.3012 29.1699L16.77 30.1562L16.3891 31.9922C16.1742 33.0078 16.018 33.877 16.0278 33.9355C16.0473 34.0039 16.7114 33.8965 17.9321 33.6035L19.8071 33.1738L20.7641 33.623C22.3364 34.3555 23.0981 34.5215 24.9926 34.5215C26.3696 34.5215 26.7211 34.4824 27.434 34.2969C30.2758 33.5254 32.5414 31.6211 33.8012 28.9453C34.4555 27.5293 34.602 26.8457 34.602 24.9512C34.6117 23.5059 34.5825 23.1836 34.3871 22.4609C33.4399 19.0137 30.8422 16.4453 27.3559 15.5078C26.3891 15.2539 24.27 15.1855 23.2641 15.3711ZM21.3696 19.1016C21.5942 19.2676 22.0043 20.0684 22.561 21.4551C22.8832 22.2559 22.8637 22.3633 22.3168 23.0957C21.8285 23.7305 21.8383 24.0918 22.3657 24.7754C23.3325 26.0156 25.8422 28.0273 26.4282 28.0273C26.7602 28.0273 27.0141 27.8711 27.6 27.334C27.8735 27.0703 28.186 26.8555 28.2836 26.8555C28.3813 26.8555 29.0746 27.0312 29.8266 27.2461C30.8813 27.5488 31.2426 27.6855 31.4184 27.8809C31.7602 28.2812 31.7016 28.6914 31.2133 29.3652C30.3246 30.5664 29.6801 30.9082 28.2641 30.9082C27.102 30.9082 26.2426 30.6738 25.0219 30.0293C23.8793 29.4238 23.0395 28.7988 21.8774 27.6855C19.7778 25.6738 18.7426 23.7793 18.7426 21.9727C18.7426 20.9766 19.3383 19.9023 20.2465 19.2285C20.686 18.9062 21.0375 18.8672 21.3696 19.1016Z" fill="white"></path> </g> <defs> <clipPath id="clip0_997_12154"> <rect width="12.5" height="12.5" fill="white" transform="scale(4)"></rect> </clipPath> </defs> </svg> 